<?xml version="1.0" encoding="utf-8"?>
<!-- Generator: Adobe Illustrator 19.2.0, SVG Export Plug-In . SVG Version: 6.00 Build 0)  -->
<svg version="1.1" id="Layer_1" xmlns="http://www.w3.org/2000/svg" xmlns:xlink="http://www.w3.org/1999/xlink" x="0px" y="0px"
	 viewBox="0 0 512 512" style="enable-background:new 0 0 512 512;" xml:space="preserve">
<style type="text/css">
	.st0{fill:#FFFFFF;}
	.st1{fill:#00B6CD;}
	.st2{fill:#91D5E2;}
	.st3{fill:#0066B2;}
	.st4{fill:#4EC5E0;}
	.st5{fill:#A5CD39;}
</style>
<g>
	<path class="st0" d="M1,256C1,115.4,115.4,1,256,1s255,114.4,255,255c0,140.6-114.4,255-255,255S1,396.6,1,256L1,256z"/>
	<path class="st1" d="M41.5,393.6C86.9,464.1,166.1,511,256,511c81,0,153.3-38,200-97.1c-19.7-6.8-135.8-46.3-208.7-50.9
		C167.1,357.9,63,387.2,41.5,393.6L41.5,393.6z"/>
	<path class="st2" d="M218.7,368.7c41.9-8.8,106.1,11.4,146.5,22.1c3.3,0.9,3.3-0.8,3.3-0.8c-50.7-12.1-96.4-36.1-148.3-44.2
		c-27.5-4.3-56-1.9-81.1,8.5c-46.8,19.4-77.6,26.7-108.4,21c3.5,6.5,7.3,12.9,11.3,19.1C104.1,417.6,134.4,386.4,218.7,368.7
		L218.7,368.7z"/>
	<path class="st1" d="M188.5,180c-1.9-1.9-4.8-2.9-9-2.9c-4,0-7.3,1.7-9.8,5c-2.5,3.3-3.8,7.5-3.8,12.6c0,10.2,5.1,16.6,12.9,16.6
		c4.5,0,8-1.6,10.5-4.8l4,6.8c-3.5,3.7-8.5,5.4-15.2,5.5c-6.6,0-11.8-2.2-15.5-6.5c-3.7-4.4-5.5-10.4-5.5-17.9c0-7,2.1-13,6.1-17.7
		c4.1-4.7,9.3-7.1,15.7-7.1c5.4,0,9.8,1.1,13,3.4L188.5,180L188.5,180z"/>
	<path class="st1" d="M216.7,218v-2.9c-1.1,1-2.7,1.8-4.8,2.5c-2,0.7-3.9,1-5.5,1c-8,0-12.1-4.3-12.1-12.9v-22.5l8.1,0v21.9
		c0,4.5,2,6.7,6,6.7c3.7,0,7.3-2.2,8.3-4.8v-23.9l8.1,0V218H216.7L216.7,218z"/>
	<path class="st1" d="M229.7,170.2l8.1-1.9v39.1c0,4.3,1.3,6.9,3.9,7.7c-1.3,2.4-3.5,3.6-6.4,3.6c-3.7,0-5.5-2.5-5.5-7.6
		L229.7,170.2L229.7,170.2z"/>
	<path class="st1" d="M246.4,189.7l-4,0v-6.5l4,0v-7l8.2-3v10h9.5v6.5h-9.5v15.2c0,5,1.4,6.9,5.3,6.9c1.9,0,3.8-0.5,5.4-1.6l0,7.4
		c-1.9,0.7-4.6,1-8.1,1c-7,0-10.8-4.1-10.8-11.3V189.7L246.4,189.7z"/>
	<path class="st1" d="M272.4,218l0-28.1H268v-6.7h12.6V218H272.4L272.4,218z M281.3,174.4c0,2.7-2.1,4.7-4.7,4.7
		c-2.7,0-4.7-2.1-4.7-4.7c0-2.6,2.1-4.7,4.7-4.7C279.2,169.7,281.3,171.8,281.3,174.4L281.3,174.4z"/>
	<polygon class="st1" points="303.1,218.6 300.2,218.6 284.4,183.2 293.4,183.2 301.7,204.4 310.6,183.2 319.2,183.2 303.1,218.6 	
		"/>
	<path class="st1" d="M329.5,218.6c-7.5,0-12-3.9-12-10.8c0-8.1,6.2-12.9,17.3-12.9c1,0,2.1,0.2,3.4,0.5c0-4.1-2.6-6.2-7.7-6.2
		c-3.1,0-5.6,0.5-7.7,1.5l-1.7-6.2c2.8-1.4,6.1-2.1,10-2.1c5.2,0,9.2,1.2,11.6,3.7c2.5,2.4,3.7,7,3.7,13.7v7.4
		c0,4.6,0.9,7.5,2.8,8.7c-1.3,2.4-2.9,2.6-5.1,2.6c-2.4,0-4.5-2.1-5.1-4.1C337.5,216.9,333.5,218.6,329.5,218.6L329.5,218.6z
		 M338.3,201.6c-1.4-0.3-2.4-0.4-3.1-0.4c-6.4,0-9.6,2.1-9.6,6.3c0,3.1,1.8,4.7,5.4,4.7c4.8,0,7.3-2.5,7.3-7.3V201.6L338.3,201.6z"
		/>
	<path class="st1" d="M373.5,218l0-20.1c0-5.9-2.1-8.6-7.2-8.6c-2.4,0-5.5,1.6-7,3.5l0,25.1l-8.1,0v-34.8l5.9,0l1.5,3.3
		c2.2-2.6,5.5-3.9,9.8-3.9c8.3,0,13.4,5.2,13.4,14.1l0,21.3H373.5L373.5,218z"/>
	<path class="st1" d="M410.1,218v-2.1c-1.3,1.5-4.9,2.8-8.4,2.8c-9.6,0-15.5-6.5-15.5-17.5c0-5.5,1.6-10,4.8-13.4
		c3.2-3.4,7.2-5.2,12-5.2c2.7,0,5,0.5,7.2,1.7v-14l8.1-1.9l0,49.7L410.1,218L410.1,218z M410.1,191.5c-1.7-1.4-3.5-2.1-5.4-2.1
		c-6.5,0-10.2,4.1-10.2,11.5c0,7.2,3.5,10.8,10.5,10.8c0.7,0,1.7-0.2,2.9-0.7c1.1-0.5,1.9-1,2.2-1.5L410.1,191.5L410.1,191.5z"/>
	<path class="st1" d="M424.7,187.6c3-3.4,7.1-5.1,12.1-5.1c10.6,0,16.7,6.8,16.7,18c0,5.5-1.5,10-4.5,13.2c-3,3.3-7,4.9-12.2,4.9
		c-5.2,0-9.4-1.7-12.3-4.9c-2.9-3.3-4.4-7.7-4.4-13.2C420.1,195.2,421.6,190.9,424.7,187.6L424.7,187.6z M436.8,212
		c5.1,0,8.2-4.1,8.2-11.5c0-7.5-2.7-11.3-8.3-11.3c-5,0-8.3,4.2-8.3,11.3C428.5,208.1,431.3,212,436.8,212L436.8,212z"/>
	<path class="st3" d="M79.9,314.2l-5.7-15.4H48.2l-5.2,15.4H27.8L58.3,237h5.9l30.7,77.2H79.9L79.9,314.2z M61.1,260.3L52,288.4
		h18.3L61.1,260.3L61.1,260.3z M76.4,216.6l-11.7,15.2l-9.9,0l8.7-15.2H76.4L76.4,216.6z"/>
	<path class="st3" d="M142.7,255.1c-1.6-1.4-4.1-2.9-7.4-4.3c-3.3-1.4-6.2-2.1-8.6-2.1c-7.5,0-13.3,2.6-17.7,7.7
		c-4.4,5-6.5,11.8-6.5,20.3c0,16.3,9.2,26.7,23.7,26.7c4.8,0,8.7-1.3,11.8-3.9l0-14.9h-10.5V273h24.1v34.2
		c-3.2,2.7-7.4,4.7-12.5,6.2c-5,1.4-10.1,2.1-15.1,2.1c-11,0-19.6-3.5-26-10.6c-6.4-7.1-9.6-16.6-9.6-28.4
		c0-11.8,3.5-21.3,10.4-28.6c6.9-7.4,16.3-11.1,28.1-11.1c8.4,0,15.5,2.6,21.4,7.5L142.7,255.1L142.7,255.1z"/>
	<path class="st3" d="M157.2,238.1h13.5l0,51.6c0,8.1,5.4,13.7,14.1,13.7c9.8,0,15.6-5.2,15.5-14.1l0-51.3l13.4,0l0,52.4
		c0,7.8-2.7,14-7.9,18.4c-5.2,4.4-12.1,6.6-21,6.6c-17.8,0-27.7-8.9-27.7-25.1L157.2,238.1L157.2,238.1z"/>
	<path class="st3" d="M263.3,314.2l-5.6-15.4h-26.1l-5.2,15.4h-15.1l30.4-77.2h5.9l30.6,77.2L263.3,314.2L263.3,314.2z M244.5,260.3
		l-9.1,28.1h18.3L244.5,260.3L244.5,260.3z"/>
	<path class="st3" d="M303.8,314.2v-76.1c10.3-0.5,17.5-0.7,21.6-0.7c15.8,0,25.2,7.1,25.2,19.6c0,6.1-3.2,10.8-9.6,14.3
		c9.5,3.3,14.2,10.1,14.2,20.5c0,6.9-2.7,12.4-7.9,16.5c-5.2,4-11.9,6.1-20.3,6.1H303.8L303.8,314.2z M317.3,267.2
		c2,0.1,4.3,0.2,6.6,0.2c8.8,0,13.2-3.3,13.2-9.9c0-5.9-4-8.8-12-8.8c-2.1,0-4.7,0.1-7.8,0.3V267.2L317.3,267.2z M317.3,302.9
		c2.8,0.2,5,0.3,6.7,0.3c12,0,17.2-3.8,17.2-13.3c0-8.6-4.4-12.3-17.1-12.4c-1.3,0-3.5,0-6.8,0.1V302.9L317.3,302.9z"/>
	<path class="st3" d="M366.1,248c6-7.6,14-11.3,23.9-11.3c21.8,0,33.7,14.2,33.7,38.8c0,12.2-3,22-9,29.3
		c-6.1,7.1-14.6,10.8-25.8,10.7c-10.2,0-18.1-3.5-23.5-10.6c-5.4-7.1-8.2-16.9-8.2-29.4C357.2,264.6,360.1,255.4,366.1,248
		L366.1,248z M388.9,303.5c13.5,0,20.8-9.7,20.8-28c0-17.8-6.6-26.7-19.7-26.7c-12,0-18.8,10.4-18.7,26.7
		C371.2,293.3,377.4,303.5,388.9,303.5L388.9,303.5z"/>
	<path class="st3" d="M469.5,314.2l-5.6-15.4h-26.1l-5.2,15.4l-15.1,0l30.4-77.2h5.9l30.7,77.2L469.5,314.2L469.5,314.2z
		 M450.7,260.3l-9.2,28.1l18.3,0L450.7,260.3L450.7,260.3z"/>
	<path class="st0" d="M269.2,357.8c-42.6-4.5-83.3,11.8-120,23.4c-28.7,9.1-56.5,14.4-94.2,0.7c-4.7-1.7-8.9-3.3-12.9-5
		c-4.8-0.4-8.2-1-9.6-1.2c6.5,3.1,13.8,6.2,22.5,9.4c37.7,13.7,65.5,8.3,94.2-0.7c36.7-11.6,77.4-27.9,120-23.4
		c85,9.1,116.8,38.3,207.8,22c0-0.1,0.1-0.1,0.1-0.2C386.1,398.5,354.2,366.9,269.2,357.8L269.2,357.8z"/>
	<path class="st2" d="M308.2,363.4c-2.6-0.3-5.3-0.7-8.2-1.1c63.5,12,98,34,177.1,20.3c6.2-10.8,11.6-22,16.2-33.7
		c-12.1,5-28.7,10-43.3,12.9C403.2,371.3,355.6,369.3,308.2,363.4L308.2,363.4z"/>
	<path class="st4" d="M144.9,342.5c-12.1,4.8-26.3,11.3-47.4,19.1c-51,18.8-64.1-4.4-82.5-22.5c3.5,10,7.5,19.8,12.2,29.2
		c14.9,5,30.7,7.9,49.4,4.6c59.2-10.4,76.3-37.6,152.5-20.4c27.8,6.3,56.1,18.7,100.7,36.9c37.2,15.1,82.1,25.1,122.2,29.5
		c8.2-9.9,15.7-20.4,22.4-31.4c-14.7,2.5-30.1,4.1-45.9,4.2C331,392.6,233.8,307.3,144.9,342.5L144.9,342.5z"/>
	<path class="st5" d="M256,1C135.4,1,34.2,85.2,7.8,197.9c47.8-29.2,174.3-83.4,456.4-88.8C418,43.8,341.9,1,256,1L256,1z"/>
</g>
</svg>
