<?xml version="1.0" encoding="utf-8"?>
<!-- Generator: Adobe Illustrator 19.2.0, SVG Export Plug-In . SVG Version: 6.00 Build 0)  -->
<svg version="1.1" id="Layer_1" xmlns="http://www.w3.org/2000/svg" xmlns:xlink="http://www.w3.org/1999/xlink" x="0px" y="0px"
	 viewBox="0 0 1080 340.4" style="enable-background:new 0 0 1080 340.4;" xml:space="preserve">
<style type="text/css">
	.st0{fill:#00B6CD;}
	.st1{clip-path:url(#SVGID_2_);}
	.st2{fill:#91D5E2;}
	.st3{fill:#FFFFFF;}
	.st4{fill:#4EC5E0;}
</style>
<rect y="190.4" class="st0" width="1080" height="150"/>
<g>
	<defs>
		<rect id="SVGID_1_" width="1080" height="340.4"/>
	</defs>
	<clipPath id="SVGID_2_">
		<use xlink:href="#SVGID_1_"  style="overflow:visible;"/>
	</clipPath>
	<g class="st1">
		<path class="st0" d="M-42.5,169.8C81.9,363,298.7,491.4,545.1,491.3c221.9,0,419.8-104.1,547.8-266
			C1038.9,206.6,721,98.5,521.3,86C301.6,72.2,16.5,152.3-42.5,169.8L-42.5,169.8z"/>
		<path class="st2" d="M442.8,101.6c114.6-24,290.5,31.3,401.2,60.6c8.9,2.3,9-2.2,9-2.2C714,127,589.1,61.1,447,39
			c-75.3-11.7-153.4-5.3-222.1,23.2C96.7,115.5,12.5,135.4-71.9,119.7C-62.4,137.6-52,155-41,172C129,235.5,212,150,442.8,101.6
			L442.8,101.6z"/>
		<path class="st3" d="M581.3,71.8c-116.6-12.4-228.2,32.4-328.6,64.1C174.1,160.7,98,175.4-5.2,137.8c-12.9-4.7-24.5-9.1-35.4-13.7
			c-13.1-1-22.3-2.6-26.3-3.4c17.9,8.5,37.8,16.9,61.7,25.6c103.2,37.6,179.3,22.8,257.9-1.9c100.4-31.7,212-76.5,328.6-64.1
			c232.7,24.8,319.9,105,569,60.3c0.1-0.2,0.2-0.3,0.3-0.5C901.3,183.2,814.1,96.6,581.3,71.8L581.3,71.8z"/>
		<path class="st2" d="M688.1,87.2c-7.2-0.9-14.6-1.8-22.3-2.9c173.8,32.8,268.3,93.1,484.9,55.7c17-29.5,31.8-60.3,44.4-92.2
			c-33.2,13.8-78.7,27.4-118.5,35.4C948.3,108.7,817.9,103.3,688.1,87.2L688.1,87.2z"/>
		<path class="st4" d="M240.8,30c-33.1,13.1-72.1,31.1-129.7,52.3c-139.5,51.4-175.4-11.9-226-61.5c9.5,27.5,20.6,54.3,33.4,80.1
			c40.8,13.7,84,21.6,135.2,12.6c162-28.5,208.8-103,417.5-55.8c76.1,17.2,153.5,51.3,275.7,101.1c102,41.5,224.8,68.8,334.6,80.8
			c22.5-27,43.1-55.7,61.4-86c-40.3,6.9-82.3,11.3-125.8,11.5C750.6,167.1,484.4-66.5,240.8,30L240.8,30z"/>
	</g>
</g>
</svg>
